<svg width="69" height="36" viewBox="0 0 69 36" fill="none" xmlns="http://www.w3.org/2000/svg">
<path d="M51.1572 0.000200653C43.1384 0.000200653 38.1442 5.08171 35.3666 9.34431C35.1513 9.67517 35.1654 10.1068 35.4022 10.4224L37.9524 13.8213C38.14 14.0715 38.4395 14.2096 38.7494 14.1901C39.0597 14.1706 39.3395 13.9954 39.4945 13.7237C41.5483 10.1293 45.2386 5.84441 51.1572 5.84441C57.8012 5.84441 63.2062 11.2973 63.2062 18C63.2062 24.7027 57.8012 30.1556 51.1572 30.1556C45.1749 30.1556 41.2357 23.5447 37.0652 16.5453C32.2178 8.41116 27.2055 0 17.8428 0C8.00446 0.000200763 0 8.07489 0 18C0 27.9251 8.00446 36 17.8428 36C25.8264 36 30.8094 30.9596 33.5839 26.7314C33.7974 26.4059 33.788 25.9809 33.5608 25.6653L31.0584 22.1933C30.8735 21.9372 30.57 21.7924 30.2596 21.8095C29.9461 21.8263 29.6621 22.002 29.5055 22.2764C27.4517 25.8709 23.7614 30.1558 17.8428 30.1558C11.1988 30.1558 5.79383 24.7029 5.79383 18.0002C5.79383 11.2975 11.1988 5.84461 17.8428 5.84461C23.9286 5.84461 27.8975 12.5049 32.0996 19.5567C36.9171 27.6408 41.8984 36 51.1572 36C60.9955 36 69 27.9253 69 18C69 8.07469 60.9955 0.000200653 51.1572 0.000200653Z" fill="#EFEFEF" fill-opacity="0.9"/>
</svg>
